/* XPM */
static char * C:\GitHub\bitcoin2\share\pixmaps\bitcoin32_xpm[] = {
"32 32 267 2",
"  	c None",
". 	c #FAB058",
"+ 	c #FAAB4D",
"@ 	c #FAA848",
"# 	c #FAA747",
"$ 	c #F9A849",
"% 	c #FAAC4F",
"& 	c #FAAD50",
"* 	c #F8A23C",
"= 	c #F89928",
"- 	c #F89622",
"; 	c #F89724",
"> 	c #F89723",
", 	c #F9992A",
"' 	c #F8A037",
") 	c #F9A540",
"! 	c #FAAD52",
"~ 	c #F89B2D",
"{ 	c #F89827",
"] 	c #F89826",
"^ 	c #F89C2E",
"/ 	c #F9A23B",
"( 	c #F9A33B",
"_ 	c #F89725",
": 	c #F89D30",
"< 	c #FAB563",
"[ 	c #F89A2A",
"} 	c #F89B2C",
"| 	c #F89927",
"1 	c #F89119",
"2 	c #FA9823",
"3 	c #F79828",
"4 	c #F89F36",
"5 	c #F89929",
"6 	c #F89B2B",
"7 	c #F99721",
"8 	c #E5DAD3",
"9 	c #E4BD97",
"0 	c #FA9926",
"a 	c #EC9A40",
"b 	c #F6911C",
"c 	c #F79726",
"d 	c #F9A847",
"e 	c #F89825",
"f 	c #F89A29",
"g 	c #F19730",
"h 	c #F4901D",
"i 	c #FA9F2F",
"j 	c #F1972F",
"k 	c #FBFFFF",
"l 	c #E9C296",
"m 	c #F09630",
"n 	c #F8FFFF",
"o 	c #E5C094",
"p 	c #F99826",
"q 	c #F29425",
"r 	c #FA9D2D",
"s 	c #EAD0B7",
"t 	c #F4F8FC",
"u 	c #EAD5C2",
"v 	c #EBC9A7",
"w 	c #FFFFFF",
"x 	c #EAA759",
"y 	c #EAAC69",
"z 	c #EBA95B",
"A 	c #F89F34",
"B 	c #F59626",
"C 	c #F9A541",
"D 	c #F89C2F",
"E 	c #FA9E31",
"F 	c #E8BB88",
"G 	c #EEE4D9",
"H 	c #FFFFFD",
"I 	c #FFFEFC",
"J 	c #FFFFFE",
"K 	c #F7F4F1",
"L 	c #F9FEFF",
"M 	c #EE9D42",
"N 	c #FBA135",
"O 	c #F89E34",
"P 	c #F99926",
"Q 	c #E98E24",
"R 	c #F99B2D",
"S 	c #F89F35",
"T 	c #F9A23A",
"U 	c #F9A441",
"V 	c #F59B34",
"W 	c #F9FFFF",
"X 	c #FEFEFE",
"Y 	c #F8F4EF",
"Z 	c #EBE6E0",
"` 	c #FAFEFF",
" .	c #E9D4BD",
"..	c #F69D35",
"+.	c #F89E33",
"@.	c #EE9224",
"#.	c #F89B2A",
"$.	c #F89D31",
"%.	c #F9A138",
"&.	c #F9A43E",
"*.	c #F9A746",
"=.	c #EDAB63",
"-.	c #FEFFFF",
";.	c #EACCAA",
">.	c #FEAD4A",
",.	c #F0AA57",
"'.	c #EBD7C1",
").	c #FFFDFA",
"!.	c #EAE2D8",
"~.	c #FB9D2D",
"{.	c #F69726",
"].	c #F9A33D",
"^.	c #F89B2E",
"/.	c #F99F35",
"(.	c #F9A33C",
"_.	c #F9A542",
":.	c #FAAB4B",
"<.	c #EAC297",
"[.	c #FFFEFD",
"}.	c #EAB77A",
"|.	c #F8AD53",
"1.	c #F8AC51",
"2.	c #FAA43D",
"3.	c #F3F5F8",
"4.	c #F2A03F",
"5.	c #FA9A27",
"6.	c #DB8420",
"7.	c #F89D2F",
"8.	c #F9A036",
"9.	c #F9A33E",
"0.	c #F9A744",
"a.	c #FBA743",
"b.	c #ECDCCE",
"c.	c #EFA044",
"d.	c #FCAE4F",
"e.	c #ED9A3F",
"f.	c #F8FEFF",
"g.	c #F2F7FE",
"h.	c #F6A13C",
"i.	c #F8A036",
"j.	c #F89C2D",
"k.	c #DD8621",
"l.	c #F99E34",
"m.	c #F9A43F",
"n.	c #F39C39",
"o.	c #F6FDFF",
"p.	c #EDE2D9",
"q.	c #EAD9C9",
"r.	c #F6F9FB",
"s.	c #E2C8AB",
"t.	c #FBA43C",
"u.	c #DE8622",
"v.	c #F9A848",
"w.	c #EDAC64",
"x.	c #EDDAC3",
"y.	c #EACFB0",
"z.	c #EBE7E3",
"A.	c #FFFEFE",
"B.	c #E6C199",
"C.	c #FCA946",
"D.	c #DB8421",
"E.	c #F99D30",
"F.	c #F9A037",
"G.	c #F8A43F",
"H.	c #FAAA48",
"I.	c #EAC196",
"J.	c #EAB87D",
"K.	c #F9BC75",
"L.	c #FCCF9A",
"M.	c #ECB26D",
"N.	c #F4F4F4",
"O.	c #FAFFFF",
"P.	c #EEB26C",
"Q.	c #FA9A26",
"R.	c #D68120",
"S.	c #FAA136",
"T.	c #F39021",
"U.	c #EDE1D4",
"V.	c #F6FBFF",
"W.	c #F3A953",
"X.	c #FAB665",
"Y.	c #E7C7A1",
"Z.	c #FBAD50",
"`.	c #EFBE86",
" +	c #ECDECE",
".+	c #FCA034",
"++	c #FC9A27",
"@+	c #CB791E",
"#+	c #F89A2C",
"$+	c #F39121",
"%+	c #F1F8FF",
"&+	c #F7FEFF",
"*+	c #EEE8DF",
"=+	c #F8992C",
"-+	c #F3D2AA",
";+	c #F7BC75",
">+	c #FCAA48",
",+	c #E8C39C",
"'+	c #EBDBCA",
")+	c #FCA033",
"!+	c #F1A245",
"~+	c #E8D6C2",
"{+	c #EEEFF2",
"]+	c #FDFFFF",
"^+	c #F3F8FD",
"/+	c #ECDAC9",
"(+	c #ECCDAC",
"_+	c #EBD8C8",
":+	c #E7BB88",
"<+	c #F79826",
"[+	c #E38922",
"}+	c #F89A2B",
"|+	c #FB9C2C",
"1+	c #FBA035",
"2+	c #E9B479",
"3+	c #F7F9FB",
"4+	c #E4DDD5",
"5+	c #F89C30",
"6+	c #CD7B1E",
"7+	c #F49625",
"8+	c #FAA034",
"9+	c #E9C39B",
"0+	c #F3F7FA",
"a+	c #FBA23A",
"b+	c #EDC79F",
"c+	c #F7F7F7",
"d+	c #EBBA81",
"e+	c #E9C7A1",
"f+	c #E9C9A3",
"g+	c #E7B57A",
"h+	c #F79C2F",
"i+	c #F19425",
"j+	c #F39525",
"k+	c #FB9721",
"l+	c #E1D8D1",
"m+	c #E8DED3",
"n+	c #FD9923",
"o+	c #EEE5DC",
"p+	c #EBDBCB",
"q+	c #FCA134",
"r+	c #F79D32",
"s+	c #FB9A27",
"t+	c #CA781E",
"u+	c #FA9722",
"v+	c #F09E3D",
"w+	c #F79522",
"x+	c #E7DACB",
"y+	c #E3BB8C",
"z+	c #E18822",
"A+	c #E68C22",
"B+	c #FB9B28",
"C+	c #F09325",
"D+	c #B16719",
"E+	c #E58B23",
"F+	c #CD7A1E",
"G+	c #CD7B1F",
"H+	c #E08822",
"I+	c #FC9B27",
"J+	c #FD9B27",
"K+	c #EF9125",
"L+	c #D07C1F",
"M+	c #C9781E",
"N+	c #D37F20",
"O+	c #D88220",
"P+	c #D98321",
"Q+	c #D5801F",
"R+	c #BB6E1B",
"                                                                ",
"                          . + @ # $ %                           ",
"                    & * = - ; ; ; ; > , ' )                     ",
"                ! ~ ; { ] ] ] ] ] ] ] ] ] ; ^ /                 ",
"              ( ; ] ] ] ] ] ] ] ] ] ] ] ] ] ] _ :               ",
"          < ~ { ] ] ] ] ] ] ] ] ] ] ] ] ] ] ] ] ] [             ",
"          } { ] ] ] ] ] ] ] | 1 2 ] 3 ] ] ] ] ] ] ] =           ",
"        4 { ] ] ] ] ] { 5 6 7 8 9 0 a b ] ] ] ] ] ] ] c         ",
"      d e ] ] ] ] ] f g h i j k l m n o ^ | ] ] ] ] ] p q       ",
"      ] ] ] ] ] ] f r s t u v w x y w z A ^ = ] ] ] ] ] B       ",
"    C ] ] ] ] ] f D E F G H I J n K L M N O ^ | ] ] ] ] P Q     ",
"    R ] ] ] ] | ^ S T U V W X Y Z ` H k  ...+.~ ] ] ] ] ] @.    ",
"  $ > ] ] ] ] #.$.%.&.*.=.-.J ;.>.,.'.J ).!.~.: 5 ] ] ] ] {.    ",
"  ]._ ] ] ] ] ^./.(._.:.<.[.w }.|.1.2.3.X W 4.A 6 ] ] ] ] 5.6.  ",
"  ' ] ] ] ] | 7.8.9.0.a.b.[.L c.:.d.e.f.X g.h.i.j.] ] ] ] 0 k.  ",
"  l.] ] ] ] = $.%.m.*.n.o.w w f.p.q.r.[.w s.t.i.D { ] ] ] P u.  ",
"  $.] ] ] ] = $.%.m.v.w.-.J x.y.z.-.A.w B.C.&.8.D | ] ] ] P D.  ",
"  E.] ] ] ] = : F.G.H.I.I w J.K.L.M.N.w O.P.m.4 ^ ] ] ] ] Q.R.  ",
"  D ] ] ] ] { ^ S.M T.U.[.V.W.X.Y.Z.`.w [. +.+A 6 ] ] ] ] ++@+  ",
"  ^ ] ] ] ] ] #+$+%+&+-.A.*+=+-+;+>+,+[.[.'+)+$.5 ] ] ] ] c     ",
"    ] ] ] ] ] 5 !+~+{+]+w X ^+/+(+_+]+w w :+A j.{ ] ] ] <+[+    ",
"    ] ] ] ] ] ] }+|+1+2+w U.3+[.w H J w 4+F.5+5 ] ] ] ] 5.6+    ",
"    7+] ] ] ] ] ] }+8+9+0+a+b+c+d+e+f+g+F.h+f ] ] ] ] <+i+      ",
"      j+] ] ] ] ] ] k+l+m+n+o+p+q+S.8+r+^ f ] ] ] ] ] s+t+      ",
"        c ] ] ] ] ] { u+v+w+x+y+$.7.^.#.| ] ] ] ] ] c z+        ",
"        A+P ] ] ] ] ] ] { { 2 B+= | ] ] ] ] ] ] ] c C+          ",
"          [+0 ] ] ] ] ] ] ] ] ] ] ] ] ] ] ] ] ] c i+D+          ",
"            D.{.] ] ] ] ] ] ] ] ] ] ] ] ] ] ] P E+              ",
"                E+s+] ] ] ] ] ] ] ] ] ] <+] P F+                ",
"                  G+H+{.I+P ] <+c ] 0 J+K+L+                    ",
"                        M+N+O+D.P+Q+F+R+                        ",
"                                                                "};
