/* XPM */
static char * C:\GitHub\bitcoin2\share\pixmaps\bitcoin64_xpm[] = {
"64 64 634 2",
"  	c None",
". 	c #FAB35F",
"+ 	c #FAB664",
"@ 	c #FAB25D",
"# 	c #FAAF56",
"$ 	c #FAAA4C",
"% 	c #FAA542",
"& 	c #F8A23B",
"* 	c #F8A036",
"= 	c #F89F34",
"- 	c #F8A037",
"; 	c #F9A540",
"> 	c #FAA847",
", 	c #F9AB4D",
"' 	c #F9AC50",
") 	c #FAB765",
"! 	c #FAB059",
"~ 	c #F9A644",
"{ 	c #F89E33",
"] 	c #F99A2B",
"^ 	c #F89928",
"/ 	c #F89826",
"( 	c #F89827",
"_ 	c #F99B2C",
": 	c #F99F33",
"< 	c #F9A440",
"[ 	c #F9A948",
"} 	c #FAB462",
"| 	c #FAA94A",
"1 	c #F89E32",
"2 	c #F8992A",
"3 	c #F89D31",
"4 	c #F9A847",
"5 	c #FAB563",
"6 	c #F9A745",
"7 	c #F89C2D",
"8 	c #F89C2E",
"9 	c #F9A33C",
"0 	c #F9A543",
"a 	c #FAB869",
"b 	c #FAAB4F",
"c 	c #F89C2F",
"d 	c #F89927",
"e 	c #F9A23C",
"f 	c #FAB460",
"g 	c #F9A039",
"h 	c #F9A23A",
"i 	c #FAAE55",
"j 	c #F89B2C",
"k 	c #F89F36",
"l 	c #FAB86B",
"m 	c #F9AA4B",
"n 	c #F89A2B",
"o 	c #F89A29",
"p 	c #F89929",
"q 	c #F89B2B",
"r 	c #F9AA4E",
"s 	c #F89A2A",
"t 	c #F89828",
"u 	c #F69321",
"v 	c #F6921D",
"w 	c #FA9D2C",
"x 	c #FA9E2F",
"y 	c #DCAB7E",
"z 	c #E2D0C2",
"A 	c #E0B286",
"B 	c #ED993C",
"C 	c #F89B2D",
"D 	c #FB9F30",
"E 	c #F99C2C",
"F 	c #F69726",
"G 	c #FAB35E",
"H 	c #F49323",
"I 	c #E5D6C8",
"J 	c #F9F7F5",
"K 	c #F4F2F0",
"L 	c #DEB17D",
"M 	c #F79C2F",
"N 	c #F39325",
"O 	c #DCA978",
"P 	c #E49B50",
"Q 	c #EC8618",
"R 	c #F79726",
"S 	c #F9A43E",
"T 	c #F99D30",
"U 	c #F89E31",
"V 	c #EB891F",
"W 	c #EFF8FF",
"X 	c #FEFDFD",
"Y 	c #F0F1F3",
"Z 	c #EBA554",
"` 	c #F79E33",
" .	c #E98C26",
"..	c #EAF1F8",
"+.	c #F3F6F9",
"@.	c #DFEBF8",
"#.	c #F09B37",
"$.	c #F89A2C",
"%.	c #F29425",
"&.	c #FAAD52",
"*.	c #F29326",
"=.	c #E39C54",
"-.	c #E98921",
";.	c #F39326",
">.	c #FAA237",
",.	c #FAA239",
"'.	c #FAA33B",
").	c #E4A058",
"!.	c #F4F7FA",
"~.	c #DDDAD7",
"{.	c #FCA641",
"].	c #FBA43C",
"^.	c #E3A360",
"/.	c #F5F7F9",
"(.	c #FDFCFC",
"_.	c #DCD6D0",
":.	c #FDA33A",
"<.	c #F69725",
"[.	c #ED9024",
"}.	c #F89E34",
"|.	c #E69643",
"1.	c #EBF4FC",
"2.	c #E6DBD1",
"3.	c #E1BA95",
"4.	c #E4A15C",
"5.	c #EB8F2C",
"6.	c #E2B78E",
"7.	c #F9F6F4",
"8.	c #DDC6AB",
"9.	c #FCA742",
"0.	c #FAA33D",
"a.	c #E1BD9A",
"b.	c #FDFCFB",
"c.	c #DCC1A3",
"d.	c #FBA33A",
"e.	c #F89D30",
"f.	c #EF9224",
"g.	c #F9AA4D",
"h.	c #FAA238",
"i.	c #E2AE7B",
"j.	c #F7F5F4",
"k.	c #FEFEFE",
"l.	c #F9F7F4",
"m.	c #F4F7F9",
"n.	c #F3FCFF",
"o.	c #F7F9F9",
"p.	c #FDFDFD",
"q.	c #E9BF90",
"r.	c #EC8E27",
"s.	c #EF8E23",
"t.	c #E9E2DB",
"u.	c #F9FAFA",
"v.	c #E2B178",
"w.	c #F8A038",
"x.	c #F9A036",
"y.	c #F59626",
"z.	c #E88D23",
"A.	c #FAB159",
"B.	c #F99F32",
"C.	c #D8BB9C",
"D.	c #E8E8E8",
"E.	c #F9FAFB",
"F.	c #FCFCFB",
"G.	c #FFFFFF",
"H.	c #F6FAFE",
"I.	c #EEF3F7",
"J.	c #E8D2BE",
"K.	c #F7FBFE",
"L.	c #EFF1F2",
"M.	c #EFAB5B",
"N.	c #F8A13A",
"O.	c #F9A138",
"P.	c #F9A037",
"Q.	c #F89726",
"R.	c #EA8F23",
"S.	c #F9AB4F",
"T.	c #F89F35",
"U.	c #F9A038",
"V.	c #FCA43B",
"W.	c #EFA752",
"X.	c #E4B276",
"Y.	c #E7DFD8",
"Z.	c #FCFBFB",
"`.	c #FEFEFF",
" +	c #F6F9FC",
".+	c #EABE8F",
"++	c #E99539",
"@+	c #F9A139",
"#+	c #F29426",
"$+	c #F9A33D",
"%+	c #F8A33E",
"&+	c #F8A543",
"*+	c #F1A64F",
"=+	c #F4F9FE",
"-+	c #FDFEFE",
";+	c #FDFDFC",
">+	c #F8F6F5",
",+	c #F0F8FF",
"'+	c #E2C7AD",
")+	c #ED9536",
"!+	c #FAA43C",
"~+	c #E38922",
"{+	c #F9AD52",
"]+	c #F99C2E",
"^+	c #F9A43F",
"/+	c #F9A542",
"(+	c #E89946",
"_+	c #F3F9FF",
":+	c #FDFCFD",
"<+	c #E3CCB1",
"[+	c #DEC3A4",
"}+	c #DCD2C7",
"|+	c #ECEEF0",
"1+	c #FBFBFB",
"2+	c #EBF2F7",
"3+	c #E7A35C",
"4+	c #F9A239",
"5+	c #F8A035",
"6+	c #F9A94A",
"7+	c #F9A23D",
"8+	c #F9A643",
"9+	c #FBAB4B",
"0+	c #E3AE78",
"a+	c #F6F6F6",
"b+	c #E6B072",
"c+	c #FBAE51",
"d+	c #FDB156",
"e+	c #EFAB5E",
"f+	c #E0BB8F",
"g+	c #E4E3E1",
"h+	c #FAFAF9",
"i+	c #FCFCFC",
"j+	c #EDF3FA",
"k+	c #ECA454",
"l+	c #F9A13A",
"m+	c #F09225",
"n+	c #F9A33E",
"o+	c #F9A23B",
"p+	c #F9A441",
"q+	c #F9A746",
"r+	c #F8A544",
"s+	c #E2C8AE",
"t+	c #FAF9F7",
"u+	c #E4E4E6",
"v+	c #F6AE58",
"w+	c #F9AB4E",
"x+	c #F9AC4F",
"y+	c #F8AA4D",
"z+	c #F9AD51",
"A+	c #F7AC53",
"B+	c #E2D3C4",
"C+	c #FAF9F8",
"D+	c #FBFBFA",
"E+	c #E0DEDA",
"F+	c #FC9D2C",
"G+	c #DB8421",
"H+	c #F99F34",
"I+	c #F9A747",
"J+	c #EF9633",
"K+	c #EAEAE9",
"L+	c #DCCCBB",
"M+	c #FDB35B",
"N+	c #F9AC51",
"O+	c #F8AB4D",
"P+	c #F6A342",
"Q+	c #EDF2F8",
"R+	c #EEF2F5",
"S+	c #EEA54E",
"T+	c #F89A28",
"U+	c #DD8521",
"V+	c #F99C2D",
"W+	c #E89B4A",
"X+	c #F1F7FD",
"Y+	c #DFBD97",
"Z+	c #FAB157",
"`+	c #F6A444",
" @	c #E8D9CA",
".@	c #EAA95E",
"+@	c #F8A039",
"@@	c #F9A035",
"#@	c #F89D32",
"$@	c #E08821",
"%@	c #F9A846",
"&@	c #F9A642",
"*@	c #F9A645",
"=@	c #F9A848",
"-@	c #FBAD4E",
";@	c #E3B07C",
">@	c #E6B276",
",@	c #F8AC51",
"'@	c #F8AB4F",
")@	c #EE9635",
"!@	c #EDEDED",
"~@	c #FFFEFE",
"{@	c #F0F2F4",
"]@	c #EBA759",
"^@	c #F8A139",
"/@	c #E58B22",
"(@	c #F8A748",
"_@	c #FFFFFE",
":@	c #F2F5F8",
"<@	c #ECA95E",
"[@	c #EE993C",
"}@	c #F8A94C",
"|@	c #FBB156",
"1@	c #FCB258",
"2@	c #FAB156",
"3@	c #F09D40",
"4@	c #E2B58A",
"5@	c #DEDCDA",
"6@	c #FAA948",
"7@	c #F89D2F",
"8@	c #E88E23",
"9@	c #F09735",
"0@	c #EBECEE",
"a@	c #E3D0BE",
"b@	c #E1BC9A",
"c@	c #E0B48A",
"d@	c #E1BA96",
"e@	c #E8DACD",
"f@	c #D7B692",
"g@	c #FBA946",
"h@	c #F89C30",
"i@	c #EB9024",
"j@	c #E89C4B",
"k@	c #FBFAF9",
"l@	c #F9F7F6",
"m@	c #F8F7F5",
"n@	c #FCFBFA",
"o@	c #FAFAFA",
"p@	c #D3C5B5",
"q@	c #F7B15D",
"r@	c #EC9025",
"s@	c #F89D2E",
"t@	c #F9A43D",
"u@	c #F9A744",
"v@	c #FBAD4D",
"w@	c #E2AF7A",
"x@	c #FAFBFB",
"y@	c #E6DCD2",
"z@	c #E8E9EB",
"A@	c #F7F9FA",
"B@	c #EBE1D7",
"C@	c #D9B893",
"D@	c #F8B262",
"E@	c #F8A441",
"F@	c #F89E30",
"G@	c #F8A138",
"H@	c #F8A645",
"I@	c #E2C8AD",
"J@	c #E7E9EA",
"K@	c #F7B160",
"L@	c #F3AE5F",
"M@	c #E5B37A",
"N@	c #DEC2A3",
"O@	c #DFDAD5",
"P@	c #F6F7F8",
"Q@	c #F5E9DC",
"R@	c #EEA858",
"S@	c #F9A137",
"T@	c #F99F36",
"U@	c #EF9632",
"V@	c #EBE9E8",
"W@	c #DBCDBC",
"X@	c #FEB55D",
"Y@	c #FAB461",
"Z@	c #FDBD72",
"`@	c #FBAD50",
" #	c #E6B47A",
".#	c #E0D9D2",
"+#	c #F9F9F8",
"@#	c #ECF1F7",
"##	c #EAA85F",
"$#	c #E68C23",
"%#	c #F99F35",
"&#	c #E89A46",
"*#	c #DEBD97",
"=#	c #FAB158",
"-#	c #F1D8BF",
";#	c #F1E4D5",
">#	c #FAE4CC",
",#	c #FAAF55",
"'#	c #E2CEB8",
")#	c #E6EBF1",
"!#	c #F69F3B",
"~#	c #F89926",
"{#	c #E08822",
"]#	c #FAA53E",
"^#	c #FAA641",
"/#	c #FAAA49",
"(#	c #E3AD77",
"_#	c #F6F6F7",
":#	c #F5F7F8",
"<#	c #E6B073",
"[#	c #F9AE54",
"}#	c #FFCB8E",
"|#	c #DFD2C1",
"1#	c #FDAD4E",
"2#	c #F9AB50",
"3#	c #F7A444",
"4#	c #EBEEF2",
"5#	c #F7F7F6",
"6#	c #E6B77F",
"7#	c #F8A43F",
"8#	c #D78120",
"9#	c #FAA23A",
"0#	c #E4984A",
"a#	c #EA8E2C",
"b#	c #E88720",
"c#	c #E8D6C5",
"d#	c #E4E5E6",
"e#	c #F5AE5A",
"f#	c #F9AC52",
"g#	c #F9B25F",
"h#	c #F9EEE2",
"i#	c #DFD2C3",
"j#	c #EFA956",
"k#	c #F8A647",
"l#	c #E7D6C5",
"m#	c #E2C29D",
"n#	c #FAA43D",
"o#	c #CD7A1E",
"p#	c #F4972C",
"q#	c #E1CDBA",
"r#	c #F1F2F3",
"s#	c #F0F9FF",
"t#	c #F2F6FA",
"u#	c #F8F7F7",
"v#	c #DCCEBD",
"w#	c #FDB259",
"x#	c #F8A642",
"y#	c #FBF9F8",
"z#	c #F8E4CD",
"A#	c #FFC67F",
"B#	c #F8AA4C",
"C#	c #F09937",
"D#	c #EBE7E2",
"E#	c #FEFDFC",
"F#	c #E0BD96",
"G#	c #F49525",
"H#	c #C4741C",
"I#	c #E48E35",
"J#	c #F1FAFF",
"K#	c #E9CEAF",
"L#	c #EB963A",
"M#	c #F4A040",
"N#	c #F4A84F",
"O#	c #E6AF6C",
"P#	c #E0C6A6",
"Q#	c #F8AE56",
"R#	c #FBAF52",
"S#	c #F7A749",
"T#	c #E0A56C",
"U#	c #F9F9FA",
"V#	c #E1B17A",
"W#	c #EC9024",
"X#	c #BB6E1B",
"Y#	c #FA9F31",
"Z#	c #DCB690",
"`#	c #F0EFEF",
" $	c #FEFEFD",
".$	c #F8F9FB",
"+$	c #E6DACD",
"@$	c #E0BD9D",
"#$	c #E1AD7A",
"$$	c #E6A663",
"%$	c #E4A35F",
"&$	c #E1A76C",
"*$	c #E3C5AA",
"=$	c #F3F8FC",
"-$	c #E8EAEA",
";$	c #F0A751",
">$	c #F69F35",
",$	c #E4A864",
"'$	c #DEBA91",
")$	c #DBCBBC",
"!$	c #E5E7E8",
"~$	c #F7F9FB",
"{$	c #F5F8FA",
"]$	c #F5F8FB",
"^$	c #F6F8F9",
"/$	c #F9F8F6",
"($	c #FBFAFA",
"_$	c #D6BFA7",
":$	c #FEA944",
"<$	c #F69626",
"[$	c #C6761D",
"}$	c #FEA740",
"|$	c #F4A448",
"1$	c #E6AD6C",
"2$	c #EDD9C1",
"3$	c #E3E2E0",
"4$	c #EFAB5D",
"5$	c #ED9124",
"6$	c #B86C1A",
"7$	c #F5972C",
"8$	c #E7D7CA",
"9$	c #FDFBFB",
"0$	c #FCFCFD",
"a$	c #E1C6A7",
"b$	c #DEC4A6",
"c$	c #E2DDDA",
"d$	c #E2E0DE",
"e$	c #E4AE71",
"f$	c #F8A239",
"g$	c #D4801F",
"h$	c #EC891F",
"i$	c #EEF7FF",
"j$	c #F1F3F5",
"k$	c #EAAA5F",
"l$	c #FBA742",
"m$	c #F3962E",
"n$	c #F4FDFF",
"o$	c #F8F8F8",
"p$	c #E1D1C2",
"q$	c #DEDDDB",
"r$	c #E7E8E8",
"s$	c #EEEFF1",
"t$	c #EFF0F1",
"u$	c #DAD4CD",
"v$	c #D7BA9B",
"w$	c #EFAC5F",
"x$	c #F19324",
"y$	c #BA6E1B",
"z$	c #E59C4F",
"A$	c #F4F8FB",
"B$	c #DEDCD9",
"C$	c #FCA745",
"D$	c #FAA540",
"E$	c #DFDAD6",
"F$	c #FFAF4F",
"G$	c #FAA848",
"H$	c #F2A751",
"I$	c #ECA655",
"J$	c #EAA85A",
"K$	c #F1A752",
"L$	c #FCAB4C",
"M$	c #FCA740",
"N$	c #F79D31",
"O$	c #D88220",
"P$	c #F39525",
"Q$	c #E1B284",
"R$	c #F7F5F3",
"S$	c #DCC5AB",
"T$	c #FDA53E",
"U$	c #FBA33B",
"V$	c #E1BA94",
"W$	c #DCC2A5",
"X$	c #FDA741",
"Y$	c #F89F37",
"Z$	c #EF9225",
"`$	c #B76B1A",
" %	c #F99825",
".%	c #D8BA9A",
"+%	c #E4E5E5",
"@%	c #F4F6F8",
"#%	c #DEB07C",
"$%	c #F79E34",
"%%	c #E6DACE",
"&%	c #E1B178",
"*%	c #FC9C2B",
"=%	c #F39F3E",
"-%	c #E0A662",
";%	c #F0A750",
">%	c #F79C2E",
",%	c #EB8C25",
"'%	c #E8F3FF",
")%	c #ECEDEE",
"!%	c #ECA450",
"~%	c #F79D32",
"{%	c #E58B23",
"]%	c #AF6618",
"^%	c #F09325",
"/%	c #FA9A27",
"(%	c #E3A865",
"_%	c #DDBA92",
":%	c #C6B5A3",
"<%	c #FEA53C",
"[%	c #E48A22",
"}%	c #F79928",
"|%	c #FA9C2C",
"1%	c #FEA336",
"2%	c #F79929",
"3%	c #E28922",
"4%	c #F59625",
"5%	c #E08722",
"6%	c #D27F1F",
"7%	c #A86117",
"8%	c #DD8621",
"9%	c #F39425",
"0%	c #D17D1F",
"a%	c #D98320",
"b%	c #F19424",
"c%	c #C9771D",
"d%	c #D37E1F",
"e%	c #E78C23",
"f%	c #EB8E23",
"g%	c #BC6E1B",
"h%	c #D98220",
"i%	c #F19425",
"j%	c #B16719",
"k%	c #E18822",
"l%	c #F59726",
"m%	c #E68B22",
"n%	c #BC6F1B",
"o%	c #CB791E",
"p%	c #F29325",
"q%	c #C1721B",
"r%	c #AB6418",
"s%	c #C5751D",
"t%	c #D47F1F",
"u%	c #E98E23",
"v%	c #F99826",
"w%	c #AB6317",
"x%	c #BB6E1A",
"y%	c #C2731C",
"z%	c #CC7A1E",
"A%	c #DC8521",
"B%	c #E98D23",
"C%	c #F49625",
"D%	c #F19325",
"E%	c #EB8F24",
"F%	c #CE7B1E",
"G%	c #B06718",
"H%	c #B56A19",
"I%	c #B86C1B",
"J%	c #BF711B",
"K%	c #C0721B",
"L%	c #C1731C",
"M%	c #C1711C",
"N%	c #BE701B",
"O%	c #B96D1B",
"P%	c #B66A19",
"Q%	c #B06619",
"                                                                                                                                ",
"                                                                                                                                ",
"                                                              .                                                                 ",
"                                                + @ # $ % & * = = - & ; > , '                                                   ",
"                                          ) ! ~ { ] ^ / / / / / / / / / ( ^ _ : < [                                             ",
"                                      } | 1 ^ / / / / / / / / / / / / / / / / / / 2 3 ; 4                                       ",
"                                  5 6 7 ( / / / / / / / / / / / / / / / / / / / / / / ( 8 9 0                                   ",
"                              a b c ( / / / / / / / / / / / / / / / / / / / / / / / / / / d 8 e                                 ",
"                            f g ^ / / / / / / / / / / / / / / / / / / / / / / / / / / / / / / ^ { h                             ",
"                          i c / / / / / / / / / / / / / / / / / / / / / / / / / / / / / / / / / ( j k                           ",
"                      l m n / / / / / / / / / / / / / / / / / / / / / / / / / / / / / / / / / / / / o 3                         ",
"                    a 4 p / / / / / / / / / / / / / / / / / / / / / / / / / / / / / / / / / / / / / / ^ 8                       ",
"                    4 p / / / / / / / / / / / / / / / / / / / / / / / / / / / / / / / / / / / / / / / / ^ q                     ",
"                  r s / / / / / / / / / / / / / / / / ( ( t u v w o t ( / / / / / / / / / / / / / / / / / ( (                   ",
"                # j / / / / / / / / / / / / / / / ^ p s n x y z A B C s D E t / / / / / / / / / / / / / / / ( F                 ",
"              G 1 / / / / / / / / / / / / / ( p n j C 8 c H I J K L M N O P Q s ( / / / / / / / / / / / / / / R                 ",
"              S ( / / / / / / / / / / / / ^ s T 8 c U 1 { V W X Y Z `  ...+.@.#.$.o ( / / / / / / / / / / / / / %.              ",
"            &.s / / / / / / / / / / / / p n *.=.-.;.>.,.'.).!.X ~.{.].^./.(._.:.c C s ^ / / / / / / / / / / / / <.[.            ",
"          @ }./ / / / / / / / / / / / o j U |.1.W 2.3.4.5.6.7.(.8.9.0.a.J b.c.d.{ e.8 n ^ / / / / / / / / / / / / f.            ",
"          g.^ / / / / / / / / / / / o C c h.i.j.k.b.l.m.n.o.p.(.q.r.s.t.b.u.v.w.x.{ 3 8 n ^ / / / / / / / / / / / y.z.          ",
"        A.= / / / / / / / / / / / o C c { B.C.D.E.F.G.G.k.k.G.k.H.I.J.K.k.L.M.N.O.P.{ 3 8 n ^ / / / / / / / / / / Q.R.          ",
"        S.o / / / / / / / / / / p j c 1 T.U.V.W.X.Y.Z.G.G.G.G.G.k.k.b.`.G. +.+++w.@+x.{ 3 8 s ( / / / / / / / / / / #+          ",
"        9 / / / / / / / / / / t s 8 1 = U.h $+%+&+*+=+G.G.G.G.-+;+(.k.G.G.-+>+,+'+)+!+x.{ e.C o / / / / / / / / / / R ~+        ",
"      {+]+/ / / / / / / / / / s 7 e.}.P.h $+^+/+6 (+_+G.G.G.:+<+[+}+|+1+;+G.G.k.J 2+3+4+5+1 c $.( / / / / / / / / / / z.        ",
"      6+p / / / / / / / / / ( $.c 1 x.@+7+S /+8+9+0+a+G.G.G./.b+c+d+e+f+g+h+G.G.G.i+j+k+l+= 3 7 s / / / / / / / / / / m+        ",
"      n+/ / / / / / / / / / o 7 3 = P.o+S p+8+q+r+s+t+G.G.k.u+v+w+x+y+z+A+B+C+G.G.G.D+E+F+x.1 c q t / / / / / / / / / y.G+      ",
"      H+/ / / / / / / / / / s c 1 5+4+e < 8+6 I+J+K+p.G.G.b.L+M+N+' ' w+O+P+Q+k.G.G.G.R+S+O.}.3 C T+/ / / / / / / / / R U+      ",
"    6+V+/ / / / / / / / / ^ j c = U.o+S p+~ 4 6+W+X+G.G.G.Z.Y+Z+{+{+N+' x+`+ @(.G.G.G.+..@+@@@#@8 s / / / / / / / / / / $@      ",
"    %@2 / / / / / / / / / o 7 U = U.9 S &@*@=@-@;@a+G.G.G./.>@,@{+{+{+N+'@)@!@X G.G.~@{@]@^@P.1 c q ( / / / / / / / / / /@      ",
"    8+^ / / / / / / / / / s C #@5+4+e ^+8+q+=@(@s+C+G.G._@:@<@[@}@|@1@2@3@4@a+k.G.G.p.5@6@o+P.= 7@n t / / / / / / / / / 8@      ",
"    ^+^ / / / / / / / / / s 8 #@x.4+9 < ~ 4 =@9@K+p.G.G.G.Z.=+0@a@b@c@d@e@/.-+G.G.G.h+f@g@9 P.= h@j ^ / / / / / / / / / i@      ",
"    7+( / / / / / / / / / s c { x.h S p+~ 4 6+j@X+G.G.G.G.X k.p.k@l@m@J n@k.G.G.;+o@p@q@n+e U.= 3 C ^ / / / / / / / / / r@      ",
"    l+( / / / / / / / / / s s@{ x.h t@p+u@I+v@w@a+G.G.G.x@y@z@A@D+p.k.G.G.G.G.`.B@C@D@E@^+e U.H+F@C T+/ / / / / / / / / [.      ",
"    G@( / / / / / / / / / s 8 1 k @+$+p+8+I+H@I@t+G.G.k.J@K@L@M@N@O@P@F.G.G.G.p.Q@R@q+&@^+9 S@}.e.j ^ / / / / / / / / / R.      ",
"    @+d / / / / / / / / / 2 8 1 T@4+7+; 8+q+U@V@;+G.G.b.W@X@i Y@Z@`@ #.#+#k.G.G.k@@###6 S o+U.}.h@j t / / / / / / / / / $#      ",
"    O.^ / / / / / / / / / o 7 U %#@+e ^+0 I+&#X+k.G.G.Z.*#=#[ -#;#>#x+,#'#t+G.G.G.Z.)#!#S h P.{ c q ( / / / / / / / / ~#{#      ",
"    P.^ / / / / / / / / / ^ C e.}.S@]#^#/+/#(#_#G.G.G.:#<#,@[#6@}#|#1#2#3#4#k.G.G.G.5#6#7#4+k 1 8 s ( / / / / / / / / / 8#      ",
"    T.s / / / / / / / / / t q 7@{ 9#0#4.a#b#c#k@G.G.k.d#e#f#g#h#i#j#,@x+k#l#b.G.G.G.k@m#n#U.= U C p / / / / / / / / / R o#      ",
"      q / / / / / / / / / / s 8 #@p#q#r#s#t#u#k.G.G.(.v#w#x#y#z#A#[#x+B#C#D#E#G.G.G.D+F#!+P.{ c j ^ / / / / / / / / / G#H#      ",
"      j / / / / / / / / / / p C 3 I#J#k.k.k.G.G.G.G.(.K#L#M#N#O#P#Q#R#S#T#/.G.G.G.G.U#V#^@%#1 8 n / / / / / / / / / / W#X#      ",
"      7 ( / / / / / / / / / ( s Y#Z#`#Z.;+ $G.G.G.G.`..$,++$@$#$$$%$&$*$=$p.G.G.G.k.-$;$k { c C p / / / / / / / / / / G+        ",
"      s ( / / / / / / / / / / p C >$,$'$)$!$~$(.G.G.G.G.k.b.l@_#{$]$^$/$k.G.G.G.G.($_$:$T.3 8 s ( / / / / / / / / / <$[$        ",
"        ( / / / / / / / / / / / s C M @@}$|$1$2$b.k.-+(.;+G.G.G.G.G.G.G.G.G.G.G.D+3$4$` 1 c $.^ / / / / / / / / / / 5$6$        ",
"        R / / / / / / / / / / / ( s 8 3 }.k 7$8$9$0$a$b$c$C+G.k.E#X k.G._@~@X Z.d$e$f${ c j p / / / / / / / / / / / g$          ",
"          F / / / / / / / / / / / ^ n 8 3 { h$i$p.j$k$l$m$n$~@o$p$q$r$s$t$D.u$v$w$f${ c C o / / / / / / / / / / / x$y$          ",
"          %.R / / / / / / / / / / / ^ n 8 : z$A$;+B$C$D$%$m.;+E$F$G$H$I$J$K$L$M$N$1 c C o / / / / / / / / / / / / O$            ",
"            P$/ / / / / / / / / / / / ^ s B.Q$R$b.S$T$U$V$7.F.W$X$h G@Y$k T.T.{ e.8 j o / / / / / / / / / / / / Z$`$            ",
"            W#<$/ / / / / / / / / / / / (  %.%+%@%#%$%;.%%Z.o@&%- x.5+= = 1 e.c 7 s p / / / / / / / / / / / / F o#              ",
"              5$R / / / / / / / / / / / / / *%=%-%;%>%,%'%k@)%!%~%#@#@U c c 7 $.s t / / / / / / / / / / / / / {%]%              ",
"                ^%Q./ / / / / / / / / / / / / ( R ^ n /%(%_%:%<%7@8 C 7 j s o ( / / / / / / / / / / / / / / f.6$                ",
"                [%%./ / / / / / / / / / / / / / / / t ^ }%|%1%2%s s s o ^ / / / / / / / / / / / / / / / / P$H#                  ",
"                  3%G#/ / / / / / / / / / / / / / / / / / ( ( / / / / / / / / / / / / / / / / / / / / / 4%o#                    ",
"                    5%P$/ / / / / / / / / / / / / / / / / / / / / / / / / / / / / / / / / / / / / / / 4%6%7%                    ",
"                      8%9%/ / / / / / / / / / / / / / / / / / / / / / / / / / / / / / / / / / / / / P$0%7%                      ",
"                        a%f.R / / / / / / / / / / / / / / / / / / / / / / / / / / / / / / / / / / b%c%                          ",
"                          d%e%F / / / / / / / / / / / / / / / / / / / / / / / / / / / / / / / R f%g%                            ",
"                              h%i%/ / / / / / / / / / / / / / / / / / / / / / / / / / / / / P$h%j%                              ",
"                                o#k%P$/ / / / / / / / / / / / / / / / / / / / / / / / / l%m%n%                                  ",
"                                    o%k%p%Q./ / / / / / / / / / / / / / / / / / / / G#{%q%r%                                    ",
"                                        s%t%u%P$/ v%/ / / / / / / / / / / / / 4%W#8#X#w%                                        ",
"                                            x%y%z%A%B%^%P$<$R R R <.C%D%E%5%F%X#G%                                              ",
"                                                    H%I%n%J%K%L%M%N%O%P%Q%                                                      ",
"                                                                                                                                ",
"                                                                                                                                "};
