/* XPM */
static char * C:\GitHub\bitcoin2\share\pixmaps\bitcoin16_xpm[] = {
"16 16 106 2",
"  	c None",
". 	c #F7931E",
"+ 	c #F8951D",
"@ 	c #F6881F",
"# 	c #F6861F",
"$ 	c #F7921E",
"% 	c #F78F1E",
"& 	c #F6851F",
"* 	c #F5841F",
"= 	c #F5B774",
"- 	c #F5C28A",
"; 	c #F79322",
"> 	c #F79120",
", 	c #F7901E",
"' 	c #F78D1E",
") 	c #F7A445",
"! 	c #F4B571",
"~ 	c #F6943A",
"{ 	c #F2E2D2",
"] 	c #F2E5D7",
"^ 	c #F89521",
"/ 	c #F1E2D3",
"( 	c #F5B97A",
"_ 	c #F5831F",
": 	c #F6B876",
"< 	c #EEEEEF",
"[ 	c #F0F1F1",
"} 	c #F2E8DD",
"| 	c #F4D3B0",
"1 	c #EEEFF0",
"2 	c #F6B977",
"3 	c #F47920",
"4 	c #F68623",
"5 	c #F5C795",
"6 	c #EFF0F0",
"7 	c #F1EDE9",
"8 	c #F2E5D6",
"9 	c #F1E4D6",
"0 	c #F5A34E",
"a 	c #F7941D",
"b 	c #F58220",
"c 	c #F3D6B6",
"d 	c #ECEDED",
"e 	c #F4D0AA",
"f 	c #F47B20",
"g 	c #F58C2B",
"h 	c #F4CEA5",
"i 	c #F1EFEB",
"j 	c #F6AA5A",
"k 	c #F5AC5E",
"l 	c #F6A043",
"m 	c #F68B1F",
"n 	c #F47621",
"o 	c #F5C187",
"p 	c #F1F1F0",
"q 	c #F5BB7E",
"r 	c #F1E4D7",
"s 	c #F1F1F2",
"t 	c #F0E5D9",
"u 	c #F5A451",
"v 	c #F4D1AA",
"w 	c #F3D5B4",
"x 	c #F4C392",
"y 	c #F4CFA5",
"z 	c #F4B06A",
"A 	c #F79D3A",
"B 	c #F6AA53",
"C 	c #F5AC5C",
"D 	c #F36D21",
"E 	c #F47C20",
"F 	c #F47A20",
"G 	c #F5CA9B",
"H 	c #F0E7DC",
"I 	c #F6AF61",
"J 	c #F6871F",
"K 	c #F3D9BD",
"L 	c #F5B067",
"M 	c #F5A04D",
"N 	c #F69728",
"O 	c #F58320",
"P 	c #F6A64D",
"Q 	c #F4C794",
"R 	c #F58020",
"S 	c #F7911E",
"T 	c #F3D6B7",
"U 	c #F0EDEB",
"V 	c #F3DFCC",
"W 	c #F69C3E",
"X 	c #F68A1F",
"Y 	c #F78E1E",
"Z 	c #F78D29",
"` 	c #F3E1CD",
" .	c #F4CEA4",
"..	c #F3D3B2",
"+.	c #F5A34B",
"@.	c #F4D4B2",
"#.	c #F4D4B1",
"$.	c #F6972A",
"%.	c #F5C38D",
"&.	c #F37421",
"*.	c #F78F20",
"=.	c #F68C1F",
"-.	c #F79931",
";.	c #F3C797",
">.	c #F6A243",
",.	c #F8961D",
"        . . + @ # $ % $         ",
"      + % & * = - ; > , +       ",
"    . ' ) ! ~ { ] ^ / ( # .     ",
"  . . _ : < [ [ } | 1 2 3 + .   ",
". . . . 4 5 6 7 8 6 6 9 0 @ a . ",
". . . . b c d e f g h 1 i ' % . ",
". . . a ' j k l m n o < p ' % . ",
". . + ' % q r [ [ s 1 t u @ . . ",
". . $ * v < w x y h z A & + . . ",
". . # B 1 C D f E F G H I J . . ",
". $ * K 1 L M N O P [ < Q R . . ",
". S % T U 6 [ [ V s 1 [ W X . . ",
"  . . Y Z ` 6  .[ [ ..+.@ + .   ",
"    a % * @.#.$.1 %.&.@ + a     ",
"      . a *.=.-.;.>.' . .       ",
"        a S S S & ' ,..         "};
