/* XPM */
static char * C:\GitHub\bitcoin2\share\pixmaps\bitcoin64_xpm[] = {
"64 64 692 2",
"  	c None",
". 	c #F7931E",
"+ 	c #F7941D",
"@ 	c #F8951D",
"# 	c #F7911E",
"$ 	c #F6861F",
"% 	c #F78D1E",
"& 	c #EA8B1F",
"* 	c #D08232",
"= 	c #CD9865",
"- 	c #BA7F46",
"; 	c #B86D2A",
"> 	c #BF6721",
", 	c #CE6F21",
"' 	c #E07F21",
") 	c #EC8F1F",
"! 	c #E77D21",
"~ 	c #DA9F68",
"{ 	c #F2EDE7",
"] 	c #EEEAE5",
"^ 	c #DDCBB9",
"/ 	c #CFB396",
"( 	c #C5A384",
"_ 	c #CA894D",
": 	c #DE8320",
"< 	c #EB8F1F",
"[ 	c #DD7C21",
"} 	c #D97521",
"| 	c #E27F21",
"1 	c #F08C1F",
"2 	c #E57A21",
"3 	c #E6B582",
"4 	c #EFF0F0",
"5 	c #F0F1F1",
"6 	c #F1F1F2",
"7 	c #E6C9AB",
"8 	c #E77C21",
"9 	c #DA7D21",
"0 	c #CC9865",
"a 	c #C29C7A",
"b 	c #AF733B",
"c 	c #AD6421",
"d 	c #B66421",
"e 	c #C86B21",
"f 	c #F1921E",
"g 	c #F5941E",
"h 	c #E57E21",
"i 	c #E88420",
"j 	c #F38F1E",
"k 	c #E17921",
"l 	c #E8C49F",
"m 	c #E0DEDE",
"n 	c #E7BA8A",
"o 	c #F58323",
"p 	c #F4911E",
"q 	c #D97821",
"r 	c #E7D6C4",
"s 	c #F3F0ED",
"t 	c #E6DDD4",
"u 	c #D8C3AF",
"v 	c #D5B28E",
"w 	c #D18840",
"x 	c #EB8720",
"y 	c #EC8C1F",
"z 	c #D07F28",
"A 	c #C38A57",
"B 	c #AE6F31",
"C 	c #AF6420",
"D 	c #BC6621",
"E 	c #C86C21",
"F 	c #D87621",
"G 	c #E58120",
"H 	c #ED891F",
"I 	c #E08020",
"J 	c #EDDCCA",
"K 	c #DDDBD9",
"L 	c #EAAC72",
"M 	c #F68724",
"N 	c #E18A2A",
"O 	c #EFE8E1",
"P 	c #EFEAE5",
"Q 	c #E79A4C",
"R 	c #F68620",
"S 	c #E77F21",
"T 	c #D59151",
"U 	c #F2EAE2",
"V 	c #F3F3F2",
"W 	c #DED1C3",
"X 	c #D1B59A",
"Y 	c #C4A383",
"Z 	c #B68861",
"` 	c #B07238",
" .	c #AD5D20",
"..	c #C37124",
"+.	c #F0E4D8",
"@.	c #EAE9E9",
"#.	c #D8D3CF",
"$.	c #F19A3D",
"%.	c #F78D23",
"&.	c #E09854",
"*.	c #F1EAE2",
"=.	c #E4E3E3",
"-.	c #D9D1C7",
";.	c #F79222",
">.	c #F79122",
",.	c #E57C21",
"'.	c #E5AE78",
").	c #F2F2F1",
"!.	c #F2F0EE",
"~.	c #F3F0EB",
"{.	c #DFD1C5",
"].	c #E0CBB7",
"^.	c #F2EFEC",
"/.	c #E8E8E8",
"(.	c #E5D2BD",
"_.	c #E97821",
":.	c #EF871F",
"<.	c #E57B21",
"[.	c #E5AD76",
"}.	c #E2E2E2",
"|.	c #E1C7AE",
"1.	c #F68721",
"2.	c #E17821",
"3.	c #E8BC8C",
"4.	c #EADAC9",
"5.	c #C2824E",
"6.	c #AE6C29",
"7.	c #B55721",
"8.	c #E0AF7C",
"9.	c #E4B98B",
"0.	c #ED8220",
"a.	c #E2D1BF",
"b.	c #E4E4E4",
"c.	c #EEEEEF",
"d.	c #F2F2F3",
"e.	c #ECE7E1",
"f.	c #DBC4B0",
"g.	c #EADED3",
"h.	c #E9A86A",
"i.	c #F58121",
"j.	c #F8961D",
"k.	c #F8952A",
"l.	c #D3AE8B",
"m.	c #AFA196",
"n.	c #AEA8A5",
"o.	c #C6C4C4",
"p.	c #E5E4E4",
"q.	c #F2EFEB",
"r.	c #D3A275",
"s.	c #C16321",
"t.	c #D47521",
"u.	c #EE911E",
"v.	c #F89826",
"w.	c #F79134",
"x.	c #F89942",
"y.	c #F39D55",
"z.	c #CBA684",
"A.	c #D3D2D2",
"B.	c #DFCFC0",
"C.	c #BA7A45",
"D.	c #C76821",
"E.	c #E68A1F",
"F.	c #F7941E",
"G.	c #F57E24",
"H.	c #ED9746",
"I.	c #DFDEDE",
"J.	c #EBEBEB",
"K.	c #E1E1E1",
"L.	c #E1E0E0",
"M.	c #E7E6E6",
"N.	c #CA9970",
"O.	c #E78B20",
"P.	c #E97F20",
"Q.	c #E4A970",
"R.	c #F0EBE7",
"S.	c #DBDADA",
"T.	c #C5BBB2",
"U.	c #B9A99C",
"V.	c #A59F9D",
"W.	c #AEABA9",
"X.	c #BEBCBC",
"Y.	c #D0CECE",
"Z.	c #EDEEEE",
"`.	c #D19A6C",
" +	c #CD6C22",
".+	c #EC901F",
"++	c #E47921",
"@+	c #E6B888",
"#+	c #D7D6D6",
"$+	c #DFAF82",
"%+	c #F68C41",
"&+	c #EEA357",
"*+	c #DCA472",
"=+	c #C9A584",
"-+	c #B79E87",
";+	c #A89F98",
">+	c #ADA9A8",
",+	c #F0F0F0",
"'+	c #D08641",
")+	c #DB7821",
"!+	c #E37A21",
"~+	c #E9C7A2",
"{+	c #DBD7D4",
"]+	c #EDA25A",
"^+	c #F68625",
"/+	c #F78F23",
"(+	c #F78D2C",
"_+	c #F78E35",
":+	c #F7933E",
"<+	c #F9A048",
"[+	c #E3A268",
"}+	c #C3A183",
"|+	c #BAB4B0",
"1+	c #D5D4D4",
"2+	c #E4C9AB",
"3+	c #D17223",
"4+	c #F38E1E",
"5+	c #EDDDCB",
"6+	c #E9E8E8",
"7+	c #DBD5D0",
"8+	c #F3942D",
"9+	c #F78D22",
"0+	c #F79121",
"a+	c #F68C2B",
"b+	c #F68738",
"c+	c #E39B5A",
"d+	c #C1BDBA",
"e+	c #F1EBE5",
"f+	c #DE964B",
"g+	c #F6891F",
"h+	c #EB8520",
"i+	c #DF8A2E",
"j+	c #F1EAE4",
"k+	c #DDCDBE",
"l+	c #F68C21",
"m+	c #F7921F",
"n+	c #F89621",
"o+	c #F57F2A",
"p+	c #DDB389",
"q+	c #D6D5D5",
"r+	c #F0EFEC",
"s+	c #E8C099",
"t+	c #F58320",
"u+	c #E09B5C",
"v+	c #F1EBE4",
"w+	c #E7E7E8",
"x+	c #B9B7B6",
"y+	c #B2AEAD",
"z+	c #B0ACAA",
"A+	c #AEACAB",
"B+	c #D3B494",
"C+	c #F68628",
"D+	c #F68521",
"E+	c #E9AF77",
"F+	c #E4E0DC",
"G+	c #E6CDB5",
"H+	c #F5831F",
"I+	c #E67A21",
"J+	c #E9BF94",
"K+	c #CBCACA",
"L+	c #ADA8A5",
"M+	c #B09F90",
"N+	c #C1A183",
"O+	c #D1AA86",
"P+	c #D9A87B",
"Q+	c #DDA774",
"R+	c #DBA674",
"S+	c #EE9E4C",
"T+	c #F89528",
"U+	c #E5AA70",
"V+	c #E2E1E0",
"W+	c #E5BF99",
"X+	c #F68C24",
"Y+	c #D9B085",
"Z+	c #C6A98E",
"`+	c #ECA05A",
" @	c #F89842",
".@	c #F79039",
"+@	c #F79033",
"@@	c #F78D2E",
"#@	c #F78D2D",
"$@	c #F68A29",
"%@	c #F79025",
"&@	c #F8971F",
"*@	c #E88B1F",
"=@	c #D16922",
"-@	c #E4BD95",
";@	c #D6D1CD",
">@	c #E7A057",
",@	c #F6881F",
"'@	c #F89B28",
")@	c #F69633",
"!@	c #F68C32",
"~@	c #F79129",
"{@	c #F7921E",
"]@	c #E68320",
"^@	c #C96D21",
"/@	c #C16921",
"(@	c #BD6821",
"_@	c #BC6721",
":@	c #BE6721",
"<@	c #C46A21",
"[@	c #CB6D21",
"}@	c #D47421",
"|@	c #DD7A21",
"1@	c #BE5E21",
"2@	c #CB8F58",
"3@	c #D6D4D5",
"4@	c #D3BEA8",
"5@	c #F08D31",
"6@	c #E48420",
"7@	c #CC6E21",
"8@	c #B56421",
"9@	c #AE6E31",
"0@	c #B98C64",
"a@	c #C4A687",
"b@	c #CEB192",
"c@	c #D1BCA7",
"d@	c #D1BDAA",
"e@	c #D0B69D",
"f@	c #CAAA8A",
"g@	c #C2A07F",
"h@	c #B9916E",
"i@	c #B37D4F",
"j@	c #AD723A",
"k@	c #AA6D32",
"l@	c #AF7647",
"m@	c #CEB197",
"n@	c #F2EBE4",
"o@	c #E1DFDF",
"p@	c #C5C4C4",
"q@	c #E39E5E",
"r@	c #F6892C",
"s@	c #E68820",
"t@	c #C96B21",
"u@	c #B36B2A",
"v@	c #C29973",
"w@	c #DECBB8",
"x@	c #F3F0EC",
"y@	c #F2F1EF",
"z@	c #F3F0EE",
"A@	c #F0EEEB",
"B@	c #F3EFEA",
"C@	c #F1F1F0",
"D@	c #E0DFDF",
"E@	c #BEBDBD",
"F@	c #D1B292",
"G@	c #F68A32",
"H@	c #F89623",
"I@	c #F5961D",
"J@	c #DB7D21",
"K@	c #BF6621",
"L@	c #C39B79",
"M@	c #EFE4D8",
"N@	c #D2D0D1",
"O@	c #B7B3B1",
"P@	c #CCAC91",
"Q@	c #F68B35",
"R@	c #F79327",
"S@	c #F8971D",
"T@	c #DA7A21",
"U@	c #BF6B26",
"V@	c #DCC4AC",
"W@	c #B6B4B4",
"X@	c #ACA49E",
"Y@	c #DEA16E",
"Z@	c #F68C36",
"`@	c #F89526",
" #	c #DE8021",
".#	c #C26921",
"+#	c #E3D1BC",
"@#	c #DAD9DA",
"##	c #CCCBCB",
"$#	c #C1C0C0",
"%#	c #C1BFBF",
"&#	c #C5C3C3",
"*#	c #CBC9CA",
"=#	c #D1D0D0",
"-#	c #D9D8D8",
";#	c #C1C0BF",
">#	c #B4B1B1",
",#	c #A6A4A4",
"'#	c #B19F90",
")#	c #D3A071",
"!#	c #F6973F",
"~#	c #F68C31",
"{#	c #F89722",
"]#	c #EA8D1F",
"^#	c #CB6A21",
"/#	c #DFBB95",
"(#	c #EEEFF0",
"_#	c #C6C4C5",
":#	c #B0A195",
"<#	c #BDA289",
"[#	c #C6A584",
"}#	c #C9A784",
"|#	c #C2A689",
"1#	c #BCA48E",
"2#	c #B5A290",
"3#	c #B0A194",
"4#	c #ACA197",
"5#	c #ADA197",
"6#	c #B4A293",
"7#	c #BBA38E",
"8#	c #C5A483",
"9#	c #D3A67C",
"0#	c #E8A25D",
"a#	c #F8973F",
"b#	c #F79324",
"c#	c #D97321",
"d#	c #D6975A",
"e#	c #B6B3B2",
"f#	c #C0A083",
"g#	c #E7A063",
"h#	c #F89A43",
"i#	c #F7913C",
"j#	c #F79038",
"k#	c #F79037",
"l#	c #F79139",
"m#	c #F7933C",
"n#	c #F8963E",
"o#	c #F89A41",
"p#	c #F99D42",
"q#	c #F78D2F",
"r#	c #F78F26",
"s#	c #DA7B21",
"t#	c #CA6E21",
"u#	c #CD7321",
"v#	c #E18720",
"w#	c #E88920",
"x#	c #D07221",
"y#	c #E9D5C2",
"z#	c #CECDCD",
"A#	c #B8B3B0",
"B#	c #E29F67",
"C#	c #F68A39",
"D#	c #F78D2A",
"E#	c #F79320",
"F#	c #F0911E",
"G#	c #E68520",
"H#	c #DC7A21",
"I#	c #C26821",
"J#	c #B16320",
"K#	c #B07441",
"L#	c #D2C0AE",
"M#	c #D4B699",
"N#	c #D97222",
"O#	c #DAA168",
"P#	c #BFB7AF",
"Q#	c #EB9A57",
"R#	c #F68930",
"S#	c #F89721",
"T#	c #E38620",
"U#	c #CC8438",
"V#	c #BC8758",
"W#	c #BA926F",
"X#	c #C9A98A",
"Y#	c #DFCEBE",
"Z#	c #D59760",
"`#	c #D67222",
" $	c #EC8B1F",
".$	c #D37321",
"+$	c #E9D3BC",
"@$	c #C3C1C1",
"#$	c #E69E5A",
"$$	c #F6872E",
"%$	c #F8981F",
"&$	c #EA7D20",
"*$	c #E2B381",
"=$	c #EBDBC9",
"-$	c #D27824",
";$	c #EA8920",
">$	c #DF7921",
",$	c #DB964F",
"'$	c #D0CFCF",
")$	c #D9B693",
"!$	c #F5842E",
"~$	c #F68621",
"{$	c #E8A86B",
"]$	c #E4E1DE",
"^$	c #DE9F61",
"/$	c #E17A21",
"($	c #DA7421",
"_$	c #E5BF96",
":$	c #CBC6C2",
"<$	c #EE983C",
"[$	c #F78E28",
"}$	c #EA7F20",
"|$	c #E3A76D",
"1$	c #F0EDEB",
"2$	c #E88520",
"3$	c #D88229",
"4$	c #EFE4DA",
"5$	c #E2E1E2",
"6$	c #E7BF96",
"7$	c #EF6E21",
"8$	c #F3931E",
"9$	c #DA7122",
"0$	c #E3B789",
"a$	c #E7CAAC",
"b$	c #EC7F20",
"c$	c #DF7821",
"d$	c #E0A266",
"e$	c #E1CBB4",
"f$	c #B97E54",
"g$	c #AF7337",
"h$	c #AB6522",
"i$	c #C36921",
"j$	c #D17221",
"k$	c #DE7B21",
"l$	c #E98520",
"m$	c #DA7621",
"n$	c #CD7524",
"o$	c #EDE3D6",
"p$	c #E6C39F",
"q$	c #DA7321",
"r$	c #E5BD93",
"s$	c #F2F1F0",
"t$	c #E8DFD6",
"u$	c #D9C6B4",
"v$	c #CAAC8E",
"w$	c #BB9573",
"x$	c #B37C4E",
"y$	c #AC6D2E",
"z$	c #AF6320",
"A$	c #BA6521",
"B$	c #C76B21",
"C$	c #D67521",
"D$	c #DF7C21",
"E$	c #E58220",
"F$	c #DE7C21",
"G$	c #C76621",
"H$	c #B36427",
"I$	c #E2C6AA",
"J$	c #DEDDDD",
"K$	c #E7B682",
"L$	c #F68523",
"M$	c #F7901E",
"N$	c #DA8632",
"O$	c #ECDECF",
"P$	c #F2EFED",
"Q$	c #E1D4C7",
"R$	c #D4B99E",
"S$	c #C4A485",
"T$	c #B88C66",
"U$	c #AE7745",
"V$	c #AC713E",
"W$	c #BF936E",
"X$	c #E9DBCC",
"Y$	c #D3CFCC",
"Z$	c #ECA053",
"`$	c #F68B26",
" %	c #E4A05C",
".%	c #F0EAE5",
"+%	c #F1F0EE",
"@%	c #D5D3D3",
"#%	c #D4C0AB",
"$%	c #F68B2A",
"%%	c #F79421",
"&%	c #DAB38C",
"*%	c #B4B2B2",
"=%	c #C2C0C0",
"-%	c #DDDCDC",
";%	c #C3C1C2",
">%	c #E69D59",
",%	c #F68A2A",
"'%	c #F29C3F",
")%	c #E4A162",
"!%	c #D5AB84",
"~%	c #C5AA8F",
"{%	c #B59E89",
"]%	c #A89F99",
"^%	c #A6A1A0",
"/%	c #AFABAA",
"(%	c #C1BFBE",
"_%	c #D7A97E",
":%	c #F68831",
"<%	c #F89822",
"[%	c #F79422",
"}%	c #F78D28",
"|%	c #F68C2F",
"1%	c #F78F37",
"2%	c #F7953F",
"3%	c #DAA678",
"4%	c #D5AA84",
"5%	c #CCB9A5",
"6%	c #D0A782",
"7%	c #F68B34",
"8%	c #F89625",
"9%	c #F79120",
"0%	c #F78D24",
"a%	c #F68B2B",
"b%	c #F47625",
"c%	c #E5C19D",
"d%	c #D2D1D1",
"e%	c #C8B19B",
"f%	c #BEA48E",
"g%	c #AAA19B",
"h%	c #BBB7B4",
"i%	c #AEABAC",
"j%	c #AFA399",
"k%	c #E2A069",
"l%	c #F68C35",
"m%	c #EE8A1F",
"n%	c #DE8624",
"o%	c #EFE8E0",
"p%	c #D1CECC",
"q%	c #EA9646",
"r%	c #F68A3F",
"s%	c #E6A05F",
"t%	c #D7D2CE",
"u%	c #B3AEAA",
"v%	c #A6A09B",
"w%	c #AD9F93",
"x%	c #C1A284",
"y%	c #DFA570",
"z%	c #F7953D",
"A%	c #E78120",
"B%	c #E19245",
"C%	c #F0EAE4",
"D%	c #E6E5E5",
"E%	c #DAD1C8",
"F%	c #F69526",
"G%	c #F78F21",
"H%	c #E87A21",
"I%	c #E3A265",
"J%	c #F0ECE9",
"K%	c #F09A4B",
"L%	c #F9A24A",
"M%	c #F78E37",
"N%	c #E47B21",
"O%	c #E3AE7B",
"P%	c #DFC9B2",
"Q%	c #F68A21",
"R%	c #E7BC8E",
"S%	c #E0DFE0",
"T%	c #E4BE96",
"U%	c #F47B23",
"V%	c #F78F1F",
"W%	c #E2C09D",
"X%	c #CECCCC",
"Y%	c #E6BC8F",
"Z%	c #F58321",
"`%	c #E9C8A5",
" &	c #E6B581",
".&	c #F79226",
"+&	c #E8A464",
"@&	c #CAAE94",
"#&	c #B99F87",
"$&	c #AD9F95",
"%&	c #B1AFAE",
"&&	c #E0B384",
"*&	c #F58425",
"=&	c #E08221",
"-&	c #ECDFD1",
";&	c #DBD8D5",
">&	c #ECA767",
",&	c #F68825",
"'&	c #F89821",
")&	c #F7912A",
"!&	c #F7933D",
"~&	c #F89B43",
"{&	c #ECA358",
"]&	c #EEA050",
"^&	c #F79325",
"/&	c #F68A1F",
"(&	c #F39938",
"_&	c #C7C0BA",
":&	c #B8B6B7",
"<&	c #C2C1C1",
"[&	c #DAD5CF",
"}&	c #F49737",
"|&	c #F68C23",
"1&	c #F7931F",
"2&	c #F78F25",
"3&	c #F68827",
"4&	c #F8971E",
"5&	c #F99B34",
"6&	c #E5A162",
"7&	c #D2A881",
"8&	c #BCA58F",
"9&	c #B0AAA6",
"0&	c #CBBCAD",
"a&	c #F79024",
"b&	c #F7911F",
"c&	c #F89521",
"d&	c #F78D30",
"e&	c #F29440",
"f&	c #D6995D",
"g&	c #F8972B",
"h&	c #F78E1E",
"i&	c #F68C1F",
"                                                                                                                                ",
"                                                                                                                                ",
"                                                . . . . . . . . . . . . . . . .                                                 ",
"                                          . . . . . . . . . . . . . . . . . . . . . .                                           ",
"                                      . . . . . . . . . . . . . . . . . . . . . . . . . .                                       ",
"                                  . . . . . . . . . . . . . + + . . . . . . . . . . . . . . .                                   ",
"                              . . . . . . . . . . . . . @ # $ % . + @ + . . . . . . . . . . . . .                               ",
"                            . . . . . . . . . . . . . + & * = - ; > , ' ) . . + @ + . . . . . . . .                             ",
"                          . . . . . . . . . . . . . . @ ! ~ { ] ^ / ( _ : . < [ } | 1 . + . . . . . .                           ",
"                        . . . . . . . . + + . . . . . + 2 3 4 5 6 6 5 7 8 . 9 0 a b c d e : f . . . . . .                       ",
"                    . . . . . . . . g & h i j + + @ + + k l 4 6 6 6 m n o p q r 6 s t u v w x + . . . . . .                     ",
"                    . . . . . . . . y z A B C D E F G H I J 5 6 6 6 K L M x N O 5 6 5 5 P Q R @ . . . . . . .                   ",
"                  . . . . . . . . + S T U V W X Y Z `  ...+.5 6 6 @.#.$.%.S &.*.6 6 6 =.-.;.>.. . . . . . . .                   ",
"                . . . . . . . . . @ ,.'.5 6 6 6 ).!.~.{.].^.6 6 6 /.(._.:.<.[.5 6 6 6 }.|.1.. . . . . . . . . .                 ",
"              . . . . . . . . . . + 2.3.4 6 6 6 6 6 6 6 6 6 6 6 6 5 4.5.6.7.8.4 6 6 6 m 9.o + . . . . . . . . . .               ",
"            . . . . . . . . . . . # 0.a.b./.c.6 6 6 6 6 6 6 6 6 6 6 6 d.e.f.g.d.6 6 6 =.h.i.j.. . . . . . . . . . .             ",
"            . . . . . . . . . . . # k.l.m.n.o.p.6 6 6 6 6 6 6 6 6 6 6 6 6 5 5 6 6 6 6 q.r.s.t.u.+ . . . . . . . . .             ",
"          . . . . . . . . . . . . + v.w.x.y.z.A.6 6 6 6 6 6 6 6 6 6 6 6 6 6 6 6 6 6 6 d.d.B.C.D.E.@ . . . . . . . . .           ",
"          . . . . . . . . . . . . . . + F.G.H.I.6 6 6 6 6 6 J.K.L.M.c.6 6 6 6 6 6 6 6 6 6 5 6 N.D.O.+ . . . . . . . .           ",
"        . . . . . . . . . . . . . . . . + P.Q.R.6 6 6 6 6 6 S.T.U.V.W.X.Y.m Z.6 6 6 6 6 6 6 6 5 `. +.+. . . . . . . . .         ",
"        . . . . . . . . . . . . . . . . + ++@+4 6 6 6 6 6 6 #+$+%+&+*+=+-+;+>+o.I.c.6 6 6 6 6 6 ,+'+)+@ . . . . . . . .         ",
"      . . . . . . . . . . . . . . . . . . !+~+4 6 6 6 6 6 c.{+]+^+/+(+_+:+<+[+}+|+1+6 6 6 6 6 6 4 2+3+. . . . . . . . . .       ",
"      . . . . . . . . . . . . . . . . . 4+I 5+5 6 6 6 6 6 6+7+8+9+@ @ + + 0+a+b+c+d+m 6 6 6 6 6 5 e+f+g+@ . . . . . . . .       ",
"      . . . . . . . . . . . . . . . . + h+i+j+5 6 6 6 6 6 }.k+l+m+. . . . . @ n+o+p+q+6 6 6 6 6 6 r+s+t+@ . . . . . . . .       ",
"    . . . . . . . . . . . . . . . . . + h u+v+w+#+o.x+y+z+A+B+C+. . . . . . . @ D+E+F+6 6 6 6 6 6 Z.G+H++ . . . . . . . . .     ",
"    . . . . . . . . . . . . . . . . . + I+J+K+L+M+N+O+P+Q+R+S+T+. . . . . . . @ <.U+5 6 6 6 6 6 6 V+W+t+@ . . . . . . . . .     ",
"    . . . . . . . . . . . . . . . . . . X+Y+Z+`+ @.@+@@@#@$@%@&@+ + + @ + + @ *@=@-@5 6 6 6 6 6 /.;@>@,@@ . . . . . . . . .     ",
"    . . . . . . . . . . . . . . . . . . '@)@!@~@{@]@F ^@/@(@_@:@<@[@}@|@G ]@q 1@2@5 6 6 6 6 6 6 3@4@5@. . . . . . . . . . .     ",
"    . . . . . . . . . . . . . . . . . . F.@ 6@7@8@9@0@a@b@c@d@e@f@g@h@i@j@k@l@m@n@6 6 6 6 6 6 o@p@q@r@@ . . . . . . . . . .     ",
"    . . . . . . . . . . . . . . . . . @ s@t@u@v@w@x@y@d.6 6 6 6 6 ).z@s x@A@B@C@5 6 6 6 6 6 D@E@F@G@H@. . . . . . . . . . .     ",
"    . . . . . . . . . . . . . . . . I@J@K@L@M@6 6 6 6 6 6 6 6 6 6 6 6 6 6 6 6 6 6 6 6 6 J.N@O@P@Q@R@@ . . . . . . . . . . .     ",
"    . . . . . . . . . . . . . . . S@T@U@V@5 6 6 6 6 6 6 6 6 6 6 6 6 6 6 6 6 6 6 6 6 /.N@W@X@Y@Z@`@@ . . . . . . . . . . . .     ",
"    . . . . . . . . . . . . . . @  #.#+#5 6 6 6 6 6 /.@###$#%#&#*#=#q+-#-#q+=#*#;#>#,#'#)#!#~#{#@ . . . . . . . . . . . . .     ",
"    . . . . . . . . . . . . . . ]#^#/#(#6 6 6 6 L._#>+:#<#[#}#|#1#2#3#4#5#:#6#7#8#9#0#a#~#b#@ + . . . . . . . . . . . . . .     ",
"    . . . . . . . . . . . . . j.c#d#4 6 6 6 Z.=#e#f#g#h#i#j#k#l#m#n#o#p#p#o#a#m#k#q#r## s#t#u#v#@ . . . . . . . . . . . . .     ",
"    . . . . . . . . . . . . + w#x#y#5 6 6 Z.z#A#B#C#D#E#+ + + + . . # # # # F#G#H#x#I#J#K#L#M#^@*@. . . . . . . . . . . . .     ",
"    . . . . . . . . . . . . @ N#O#4 6 6 6 1+P#Q#R#S#@ . . . . . . . . . . . T#U#V#W#X#Y#y@d.5 Z#`#@ . . . . . . . . . . . .     ",
"    . . . . . . . . . . . .  $.$+$5 6 6 L.@$#$$$%$. . . . . . . . . . . . + &$*$5 V 6 6 6 6 5 =$-$;$+ . . . . . . . . . . .     ",
"    . . . . . . . . . . . @ >$,$5 6 6 6 '$)$!$S#. . . . . . . . . . . . . @ ~${$]$6 6 6 6 6 6 5 ^$/$@ . . . . . . . . . . .     ",
"      . . . . . . . . . . g ($_$4 6 6 L.:$<$[$@ . . . . . . . . . . . . . @ }$|$1$6 6 6 6 6 6 4 3.<.+ . . . . . . . . . . .     ",
"      . . . . . . . . . + 2$3$4$5 6 6 5$6$7$h+1 . + + @ + . . . . . . . . 8$9$0$5 6 6 6 6 6 6 5 a$b$. . . . . . . . . . .       ",
"      . . . . . . . . . @ c$d$4 6 6 6 6 e$f$g$h$d i$j$k$l$j + + + + + + S@m$n$o$6 6 6 6 6 6 6 w+p$t+. . . . . . . . . . .       ",
"      . . . . . . . . . @ q$r$5 6 6 6 6 6 s$~.t$u$v$w$x$y$z$A$B$C$D$E$F$G$H$I$5 6 6 6 6 6 6 6 J$K$L$+ . . . . . . . . . .       ",
"        . . . . . . . . M$N$O$5 6 6 6 6 6 6 6 5 6 6 !.P$] Q$R$S$T$U$k@V$W$X$5 6 6 6 6 6 6 6 /.Y$Z$`$+ . . . . . . . . .         ",
"        . . . . . . . + $  %.%5 6 6 6 6 6 6 6 6 6 6 6 6 5 6 6 ).z@x@B@B@+%5 6 6 6 6 6 6 6 6 @%#%$%%%. . . . . . . . . .         ",
"          . . . . . . + H+&%A#*%=%=#m J.6 6 6 6 6 6 6 6 6 6 6 6 6 6 6 6 6 6 6 6 6 6 6 6 6 -%;%>%,%@ . . . . . . . . .           ",
"          . . . . . . . . '%)%!%~%{%]%^%/%(%1+@.6 6 6 6 6 6 6 6 6 6 6 6 6 6 6 6 6 6 6 6 -%X._%:%<%. . . . . . . . . .           ",
"            . . . . . . @ [%}%|%1%2%<+0#3%4%5%=.6 6 6 M.-#1+-%@.c.6 6 6 6 6 6 6 6 6 @.z#>#6%7%8%+ . . . . . . . . .             ",
"              . . . . . . . + + + . 9%0%a%b%c%4 6 6 6 d%e%f%g%h%q+6 6 6 6 c.J.}.q+$#i%j%k%l%8%@ . . . . . . . . . .             ",
"              . . . . . . . . . . . . @ m%n%o%5 6 6 Z.p%q%r%2%s%t%6 6 6 @.*#u%v%w%x%y%z%q#S#+ . . . . . . . . . .               ",
"                . . . . . . . . . . . + A%B%C%6 6 6 D%E%F%G%H%I%J%6 6 6 L.5%K%L%o#M%(+%%@ . . . . . . . . . . .                 ",
"                  . . . . . . . . . . @ N%O%r+6 6 6 }.P%Q%. ++R%4 6 6 6 S%T%U%V%{@+ @ . . . . . . . . . . . .                   ",
"                    . . . . . . . . . . i.W%##X%S.@.5$Y%Z%+ k `%4 6 6 6 m  &L$+ . . . . . . . . . . . . . . .                   ",
"                      . . . . . . . . . .&+&@&#&$&^%%&&&*&4+=&-&5 6 6 c.;&>&,&@ . . . . . . . . . . . . . .                     ",
"                        . . . . . . . . '&)&_+!&~&{&R+]&^&/&(&_&:&<&@%m [&}&|&+ . . . . . . . . . . . . .                       ",
"                          . . . . . . . . + + + 1&2&3&^&4&1&5&6&7&8#8&9&0&a&b&. . . . . . . . . . . .                           ",
"                            . . . . . . . . . . . + @ . . @ c&}%d&1%e&f&O#g&+ . . . . . . . . . . .                             ",
"                              . . . . . . . . . . . . . . . . + @ + . h&i&+ . . . . . . . . . . .                               ",
"                                  . . . . . . . . . . . . . . . . . . . + . . . . . . . . . .                                   ",
"                                      . . . . . . . . . . . . . . . . . . . . . . . . . .                                       ",
"                                          . . . . . . . . . . . . . . . . . . . . . .                                           ",
"                                                . . . . . . . . . . . . . . . .                                                 ",
"                                                                                                                                ",
"                                                                                                                                "};
