/* XPM */
static char * C:\GitHub\bitcoin2\share\pixmaps\bitcoin32_xpm[] = {
"32 32 343 2",
"  	c None",
". 	c #F7931E",
"+ 	c #F7941D",
"@ 	c #F7921E",
"# 	c #F7901E",
"$ 	c #F78F1E",
"% 	c #F6861F",
"& 	c #F5841F",
"* 	c #E98220",
"= 	c #DD9A52",
"- 	c #EDE7E1",
"; 	c #DFC7AC",
"> 	c #DCAE7E",
", 	c #DE8722",
"' 	c #DC8221",
") 	c #D07C21",
"! 	c #C87121",
"~ 	c #D87521",
"{ 	c #E88A20",
"] 	c #F8951D",
"^ 	c #EC8F1F",
"/ 	c #DA8021",
"( 	c #D27621",
"_ 	c #D37221",
": 	c #E37D21",
"< 	c #E37021",
"[ 	c #EAB276",
"} 	c #EFF0F0",
"| 	c #EEEFF0",
"1 	c #EFE2D5",
"2 	c #E57E22",
"3 	c #DA8F3D",
"4 	c #EEE7DF",
"5 	c #E2D0BC",
"6 	c #DEB88F",
"7 	c #DF8929",
"8 	c #E37E21",
"9 	c #DDAA72",
"0 	c #E8D9C9",
"a 	c #D3AA81",
"b 	c #CA935D",
"c 	c #C3732E",
"d 	c #E4C09A",
"e 	c #E8E8E8",
"f 	c #E9C298",
"g 	c #EB6622",
"h 	c #E9AB69",
"i 	c #EEE4DA",
"j 	c #EC8F25",
"k 	c #F78D1E",
"l 	c #EA7F20",
"m 	c #ECD2B5",
"n 	c #F0F1F1",
"o 	c #F2F2F3",
"p 	c #EFECEA",
"q 	c #F1EDE9",
"r 	c #F1F1F2",
"s 	c #E6C59F",
"t 	c #CC6B29",
"u 	c #E2B98C",
"v 	c #E6E6E7",
"w 	c #E8C8A6",
"x 	c #F68620",
"y 	c #F7911E",
"z 	c #F79124",
"A 	c #DABFA2",
"B 	c #CCCBCB",
"C 	c #DAD9DA",
"D 	c #EFE9E4",
"E 	c #EFE9E3",
"F 	c #E8C59C",
"G 	c #DA7022",
"H 	c #E27F21",
"I 	c #F5941E",
"J 	c #F89724",
"K 	c #F7922F",
"L 	c #EFA14B",
"M 	c #D9D2CA",
"N 	c #EDEEEE",
"O 	c #EBEBEB",
"P 	c #DFDEDE",
"Q 	c #D8D7D7",
"R 	c #DCDBDB",
"S 	c #E9E9E9",
"T 	c #E5CBAD",
"U 	c #D07C27",
"V 	c #E07D21",
"W 	c #F3891F",
"X 	c #E98620",
"Y 	c #ECE1D5",
"Z 	c #E4E3E3",
"` 	c #D7C7B7",
" .	c #DBB38B",
"..	c #C5B19E",
"+.	c #BDB7B2",
"@.	c #C5C3C3",
"#.	c #D6D5D5",
"$.	c #EAE9E9",
"%.	c #EAD8C3",
"&.	c #D57B24",
"*.	c #EB8320",
"=.	c #E89B46",
"-.	c #E3E2E2",
";.	c #E6B885",
">.	c #F47B2E",
",.	c #F79334",
"'.	c #F79E41",
").	c #E7A465",
"!.	c #D1B89D",
"~.	c #D7D6D6",
"{.	c #EEEEEF",
"].	c #E5B37D",
"^.	c #F58320",
"/.	c #E87C21",
"(.	c #E9AF71",
"_.	c #EBEBEC",
":.	c #CBC9C9",
"<.	c #C8C7C7",
"[.	c #E9B073",
"}.	c #F58423",
"|.	c #F78F20",
"1.	c #F58329",
"2.	c #F49227",
"3.	c #DBD4CF",
"4.	c #EDEDED",
"5.	c #EDDDCC",
"6.	c #F68A1F",
"7.	c #F68622",
"8.	c #E0BE98",
"9.	c #C1BFBF",
"0.	c #D2B08D",
"a.	c #DCAF81",
"b.	c #E2AE78",
"c.	c #F4982E",
"d.	c #F78D22",
"e.	c #ED891F",
"f.	c #E47C21",
"g.	c #F0DECA",
"h.	c #E7E7E8",
"i.	c #E4D5C7",
"j.	c #F68B1F",
"k.	c #F89826",
"l.	c #F2A247",
"m.	c #F68B2C",
"n.	c #F47522",
"o.	c #DB7122",
"p.	c #CF7121",
"q.	c #C87621",
"r.	c #C67721",
"s.	c #C97221",
"t.	c #CB6F21",
"u.	c #C66721",
"v.	c #D89C5C",
"w.	c #F3931E",
"x.	c #DF7C21",
"y.	c #CD7021",
"z.	c #CB9054",
"A.	c #DCC0A2",
"B.	c #E6D7C7",
"C.	c #EBE5DF",
"D.	c #EBE6E3",
"E.	c #E8DCCF",
"F.	c #E1CDB8",
"G.	c #DAC0A6",
"H.	c #E1CBB6",
"I.	c #F1EEEB",
"J.	c #D4D3D3",
"K.	c #D0C4B9",
"L.	c #F39434",
"M.	c #F68C1F",
"N.	c #DD7821",
"O.	c #CF8339",
"P.	c #E8D8C4",
"Q.	c #ECECEC",
"R.	c #D2D0D1",
"S.	c #C1C0C0",
"T.	c #C9B5A1",
"U.	c #F29A41",
"V.	c #F68C28",
"W.	c #E37F21",
"X.	c #D6822F",
"Y.	c #EFE7DE",
"Z.	c #CBCACA",
"`.	c #BFBAB6",
" +	c #C2B4A8",
".+	c #C2B4A6",
"++	c #BFB5AC",
"@+	c #BAB5B1",
"#+	c #BAB4B1",
"$+	c #BCB6B2",
"%+	c #C0B3A7",
"&+	c #CBB093",
"*+	c #E8A561",
"=+	c #F6872F",
"-+	c #F68B25",
";+	c #F8961E",
">+	c #EE8D1F",
",+	c #D97621",
"'+	c #E8CAA9",
")+	c #C8C5C4",
"!+	c #DBAA78",
"~+	c #F79F47",
"{+	c #F89737",
"]+	c #F89836",
"^+	c #F99D38",
"/+	c #F5A042",
"(+	c #F4A244",
"_+	c #F99D36",
":+	c #F6862E",
"<+	c #ED7121",
"[+	c #D27522",
"}+	c #D28C3F",
"|+	c #D97F21",
"1+	c #EE8F1F",
"2+	c #E19A4A",
"3+	c #E9E8E8",
"4+	c #CCCBCA",
"5+	c #EBA052",
"6+	c #F5842D",
"7+	c #F78D23",
"8+	c #F78F1F",
"9+	c #F78E1F",
"0+	c #E18320",
"a+	c #DAA773",
"b+	c #DBBD9F",
"c+	c #ECE3D9",
"d+	c #DA9750",
"e+	c #E57E21",
"f+	c #DF7821",
"g+	c #EAC7A4",
"h+	c #D5D4D5",
"i+	c #E6AA6E",
"j+	c #F5812A",
"k+	c #F89520",
"l+	c #F48D1F",
"m+	c #E18420",
"n+	c #EDE2D7",
"o+	c #ECCDAC",
"p+	c #E28D2C",
"q+	c #F1EBE6",
"r+	c #F2E6DA",
"s+	c #DF7F21",
"t+	c #D56E22",
"u+	c #E17D21",
"v+	c #EB8520",
"w+	c #F48E1F",
"x+	c #E57D21",
"y+	c #E08621",
"z+	c #F0ECE9",
"A+	c #EADCCD",
"B+	c #EC8B1F",
"C+	c #E8AB69",
"D+	c #F2EBE5",
"E+	c #E8D6C3",
"F+	c #DCC1A5",
"G+	c #D1A578",
"H+	c #C89057",
"I+	c #C27D35",
"J+	c #C37321",
"K+	c #C87021",
"L+	c #C96C21",
"M+	c #C66E21",
"N+	c #E2BB90",
"O+	c #E5D1BC",
"P+	c #F78D20",
"Q+	c #EACDAD",
"R+	c #F3F3F2",
"S+	c #EADED2",
"T+	c #DEC7AF",
"U+	c #D9BA9D",
"V+	c #E9DBCC",
"W+	c #E7B67F",
"X+	c #F68625",
"Y+	c #F78E1E",
"Z+	c #E4B37F",
"`+	c #C9B6A4",
" @	c #BCB2A9",
".@	c #BCBABA",
"+@	c #CECCCC",
"@@	c #E1E1E1",
"#@	c #D2C3B3",
"$@	c #F79430",
"%@	c #F79023",
"&@	c #F78E2B",
"*@	c #F79234",
"=@	c #F89C38",
"-@	c #F59E4C",
";@	c #E4B079",
">@	c #E0DFDF",
",@	c #D6D3D0",
"'@	c #CDC2BA",
")@	c #C9C5C2",
"!@	c #DCDBDA",
"~@	c #DBDADA",
"{@	c #BFBDBE",
"]@	c #F3983C",
"^@	c #F68B27",
"/@	c #ED7621",
"(@	c #ECA253",
"_@	c #DACCBE",
":@	c #F79230",
"<@	c #EFA24E",
"[@	c #DEDDDD",
"}@	c #D8D7D6",
"|@	c #D5BEA6",
"1@	c #D6AF88",
"2@	c #E6A764",
"3@	c #F78D27",
"4@	c #F8951E",
"5@	c #F58120",
"6@	c #EAC69E",
"7@	c #D9D8D8",
"8@	c #E6CCB1",
"9@	c #F37221",
"0@	c #E99F4F",
"a@	c #EAEAEA",
"b@	c #DBD2C9",
"c@	c #F4922A",
"d@	c #F5832D",
"e@	c #F68B26",
"f@	c #F79320",
"g@	c #EAA966",
"h@	c #D1B596",
"i@	c #BFB9B4",
"j@	c #E1B281",
"k@	c #F47927",
"l@	c #EBC192",
"m@	c #E2CEB9",
"n@	c #F68A20",
"o@	c #F7911F",
"p@	c #F89820",
"q@	c #F78E28",
"r@	c #F78D31",
"s@	c #F89734",
"t@	c #F8972D",
"u@	c #F79329",
"v@	c #ECA65C",
"w@	c #D7B48F",
"x@	c #C2B7AD",
"y@	c #DEB487",
"z@	c #F68C25",
"A@	c #F8971D",
"B@	c #F6891F",
"                    . . . . . . . . . . . .                     ",
"                . . . . . + @ # . . . . . . . .                 ",
"              . . . . . . + . $ % & . . $ @ . . .               ",
"          . . . + @ @ . . * = - ; > , ' ) ! ~ { ] . .           ",
"        . . . . ^ / ( _ : < [ } | 1 2 3 4 5 6 7 $ . . .         ",
"      . . . . . 8 9 0 a b c d } e f g h | | i j k . . . .       ",
"      . . . . @ l m | n o p q r } s t u } v w x . . . . .       ",
"    . . . . . y z A B C r n r r r r D E r } F G H I . . . .     ",
"  . . . . . . . J K L M N r O P Q R S n r r r T U V ] . . . .   ",
"  . . . . . . . + W X Y n r Z `  ...+.@.#.$.r } %.&.k . . . .   ",
". . . . . . . . . *.=.n r r -.;.>.,.'.).!.~.{.r } ].^.. . . . . ",
". . . . . . . . . /.(._.#.:.<.[.}.@ |.1.2.3.4.r n 5.6.y . . . . ",
". . . . . . . . . 7.8.9.0.a.b.c.d.@ . e.f.g.n r h.i.j.y . . . . ",
". . . . . . . . . k.l.m.n.o.p.q.r.s.t.u.v.r r N ~.;.^.. . . . . ",
". . . . . . . . w.x.y.z.A.B.C.D.E.F.G.H.I.n O J.K.L.M.. . . . . ",
". . . . . . . w.N.O.P.n n } Q.e } } n } v R.S.T.U.V.] . . . . . ",
". . . . . . ] W.X.Y.} Z Z.`. +.+++@+#+$+%+&+*+=+-+;+. . . . . . ",
". . . . . . >+,+'+} P )+!+~+{+]+^+/+(+_+:+<+[+}+|+1+. . . . . . ",
". . . . . + f.2+n 3+4+5+6+7+y y 8+9+6.0+a+b+c+r d+e+. . . . . . ",
". . . . . . f+g+} h+i+j+k++ . . . . l+m+n+} n } o+e+@ . . . . . ",
". . . . . j.p+q+} r+s+t+~ u+v+w+@ + x+y+z+n r n A+B+$ . . . . . ",
". . . . . ^.C+} r D+E+F+G+H+I+J+K+L+M+N+n r r v O+P+y . . . . . ",
"  . . . @ & Q+Z h.n n n n o R+S+T+U+V+n r r N ~.W+X+. . . . .   ",
"  . . . @ Y+Z+`+ @.@+@@@r N 4.} n n n r r O J.#@$@%@. . . . .   ",
"    . . . ] &@*@=@-@;@>@N ,@'@)@!@r e ~@:.{@T.]@^@] . . . .     ",
"      . . . . . # /@(@} 3+_@:@<@[@N }@|@1@2@:@3@4@. . . .       ",
"      . . . . . . 5@6@[@7@8@9@0@n a@b@c@d@e@f@] . . . . .       ",
"        . . . . . z g@h@i@j@k@l@~@~.m@n@o@. . . . . . .         ",
"          . . . . p@q@r@s@t@u@v@w@x@y@z@. . . . . . .           ",
"              . . . . . y y A@j.^.B@$ + . . . . .               ",
"                . . . . . . . . . @ y + . . . .                 ",
"                    . . . . . . . . . . . .                     "};
