/* XPM */
static char * C:\GitHub\bitcoin2\share\pixmaps\bitcoin16_xpm[] = {
"16 16 121 2",
"  	c None",
". 	c #F9A13B",
"+ 	c #F99D31",
"@ 	c #F99A29",
"# 	c #F99929",
"$ 	c #F99C2E",
"% 	c #F89E33",
"& 	c #F9A644",
"* 	c #F89622",
"= 	c #F89827",
"- 	c #F89826",
"; 	c #F89724",
"> 	c #F99D2F",
", 	c #F9A13A",
"' 	c #F89723",
") 	c #F89929",
"! 	c #F9A543",
"~ 	c #F89928",
"{ 	c #F99F33",
"] 	c #F4C086",
"^ 	c #EEB571",
"/ 	c #E8D3BF",
"( 	c #F89A29",
"_ 	c #F69726",
": 	c #F89725",
"< 	c #F89C2E",
"[ 	c #E7BD90",
"} 	c #FAF6F2",
"| 	c #FBF9F7",
"1 	c #ECC191",
"2 	c #F8F1E9",
"3 	c #FAA035",
"4 	c #F89B2C",
"5 	c #F8A037",
"6 	c #F99F35",
"7 	c #FCA33A",
"8 	c #F3D6B6",
"9 	c #FBF5EF",
"0 	c #F4D5B1",
"a 	c #F9FEFF",
"b 	c #F4DFC7",
"c 	c #F89E35",
"d 	c #F99926",
"e 	c #EE9224",
"f 	c #F89D30",
"g 	c #F9A23B",
"h 	c #FBA741",
"i 	c #F6E9DD",
"j 	c #F4DEC3",
"k 	c #FFAE4C",
"l 	c #F4AB56",
"m 	c #FFFDFB",
"n 	c #F4AE5B",
"o 	c #F89D2E",
"p 	c #F39425",
"q 	c #F89B2E",
"r 	c #F9A43F",
"s 	c #F59E39",
"t 	c #FBFFFF",
"u 	c #F6F1ED",
"v 	c #F0D2B0",
"w 	c #F3E8DE",
"x 	c #FBF6F0",
"y 	c #F8A749",
"z 	c #F89D31",
"A 	c #F79826",
"B 	c #F09325",
"C 	c #F89A2B",
"D 	c #F9A33D",
"E 	c #EFB26F",
"F 	c #FFFFFF",
"G 	c #F2B269",
"H 	c #ECC496",
"I 	c #FCFCFA",
"J 	c #F4E8DC",
"K 	c #EF9224",
"L 	c #F89A2A",
"M 	c #EAC49C",
"N 	c #F5E8DA",
"O 	c #F5FAFF",
"P 	c #F8BE78",
"Q 	c #F6B464",
"R 	c #EFC99E",
"S 	c #F8A645",
"T 	c #EE9125",
"U 	c #F2B264",
"V 	c #F1D8BC",
"W 	c #FBF4EE",
"X 	c #FAF0E5",
"Y 	c #F6F7F8",
"Z 	c #F79D33",
"` 	c #FB9A27",
" .	c #D88220",
"..	c #F89B2D",
"+.	c #F0BC83",
"@.	c #F4BF7E",
"#.	c #EFE8E0",
"$.	c #F4B365",
"%.	c #F3BB79",
"&.	c #F49F3A",
"*.	c #F49D36",
"=.	c #F3972A",
"-.	c #ECCCA7",
";.	c #F99C2C",
">.	c #FD9B27",
",.	c #D17D1E",
"'.	c #EC9024",
").	c #F99927",
"!.	c #FA9A26",
"~.	c #D68020",
"{.	c #DF8722",
"].	c #F69626",
"^.	c #F99826",
"/.	c #F59625",
"(.	c #C8771D",
"_.	c #D58020",
":.	c #E68C23",
"<.	c #F49525",
"[.	c #F39525",
"}.	c #E48A23",
"|.	c #CB781E",
"          . + @ # $ %           ",
"      & * = = - - - - ; >       ",
"    , - - - - = = ' - - - )     ",
"  ! - - - ~ { ] ^ / ( - - - _   ",
"  : - - < [ } | 1 2 3 4 - - -   ",
"5 - - ~ 6 7 8 9 0 a b c ) - d e ",
"f - - < g h i j k l m n o - - p ",
"q - - f r s t u v w x y z - A B ",
"C - - f D E F G H I J D f - A K ",
"L - - 4 M N O P Q R F S < - - T ",
"~ - - = U V F W X F Y Z ~ - `  .",
"  - - - ..+.@.#.$.%.&.) - A B   ",
"  K d - - *.=.-.;.f ) - - >.,.  ",
"    '.d - = - ).- - - - !.~.    ",
"      {.].^.^.- - ^.d /.(.      ",
"          _.:.<.[.}.|.          "};
